<svg width="20" height="16" viewBox="0 0 20 16" fill="none" xmlns="http://www.w3.org/2000/svg">
<path d="M10 13C10.2833 13 10.521 12.904 10.713 12.712C10.9043 12.5207 11 12.2833 11 12V8.8L11.9 9.7C12 9.8 12.1083 9.87067 12.225 9.912C12.3417 9.954 12.4667 9.975 12.6 9.975C12.7333 9.975 12.8583 9.954 12.975 9.912C13.0917 9.87067 13.2 9.8 13.3 9.7C13.4833 9.51667 13.575 9.28333 13.575 9C13.575 8.71667 13.4833 8.48333 13.3 8.3L10.7 5.7C10.5 5.5 10.2667 5.4 10 5.4C9.73333 5.4 9.5 5.5 9.3 5.7L6.7 8.3C6.51667 8.48333 6.425 8.71667 6.425 9C6.425 9.28333 6.51667 9.51667 6.7 9.7C6.88333 9.88333 7.11667 9.975 7.4 9.975C7.68333 9.975 7.91667 9.88333 8.1 9.7L9 8.8V12C9 12.2833 9.096 12.5207 9.288 12.712C9.47933 12.904 9.71667 13 10 13ZM2 16C1.45 16 0.979333 15.8043 0.588 15.413C0.196 15.021 0 14.55 0 14V2C0 1.45 0.196 0.979333 0.588 0.588C0.979333 0.196 1.45 0 2 0H7.175C7.44167 0 7.696 0.0500001 7.938 0.15C8.17933 0.25 8.39167 0.391666 8.575 0.575L10 2H18C18.55 2 19.021 2.196 19.413 2.588C19.8043 2.97933 20 3.45 20 4V14C20 14.55 19.8043 15.021 19.413 15.413C19.021 15.8043 18.55 16 18 16H2ZM2 2V14H18V4H9.175L7.175 2H2Z" fill="#1F2520" fill-opacity="0.5"/>
</svg>
