<svg width="21" height="21" viewBox="0 0 21 21" fill="none" xmlns="http://www.w3.org/2000/svg">
<path d="M10.5 18.9H18.9V21H10.5C4.70085 21 0 16.2991 0 10.5C0 4.70085 4.70085 0 10.5 0C16.2991 0 21 4.70085 21 10.5C21.0033 12.7724 20.2661 14.9841 18.9 16.8H16.0566C17.5311 15.4996 18.5027 13.7233 18.8024 11.7803C19.102 9.83731 18.7107 7.85077 17.6965 6.1666C16.6823 4.48244 15.1095 3.20736 13.252 2.5634C11.3945 1.91945 9.36993 1.94741 7.53092 2.64243C5.69191 3.33744 4.15493 4.65548 3.18763 6.36701C2.22033 8.07854 1.884 10.0751 2.23719 12.0091C2.59039 13.9431 3.61074 15.6919 5.12057 16.9511C6.63039 18.2102 8.53404 18.8999 10.5 18.9ZM10.5 8.4C9.94304 8.4 9.4089 8.17875 9.01508 7.78492C8.62125 7.3911 8.4 6.85695 8.4 6.3C8.4 5.74304 8.62125 5.2089 9.01508 4.81508C9.4089 4.42125 9.94304 4.2 10.5 4.2C11.057 4.2 11.5911 4.42125 11.9849 4.81508C12.3787 5.2089 12.6 5.74304 12.6 6.3C12.6 6.85695 12.3787 7.3911 11.9849 7.78492C11.5911 8.17875 11.057 8.4 10.5 8.4ZM6.3 12.6C5.74304 12.6 5.2089 12.3787 4.81508 11.9849C4.42125 11.5911 4.2 11.057 4.2 10.5C4.2 9.94304 4.42125 9.4089 4.81508 9.01508C5.2089 8.62125 5.74304 8.4 6.3 8.4C6.85695 8.4 7.3911 8.62125 7.78492 9.01508C8.17875 9.4089 8.4 9.94304 8.4 10.5C8.4 11.057 8.17875 11.5911 7.78492 11.9849C7.3911 12.3787 6.85695 12.6 6.3 12.6ZM14.7 12.6C14.143 12.6 13.6089 12.3787 13.2151 11.9849C12.8212 11.5911 12.6 11.057 12.6 10.5C12.6 9.94304 12.8212 9.4089 13.2151 9.01508C13.6089 8.62125 14.143 8.4 14.7 8.4C15.257 8.4 15.7911 8.62125 16.1849 9.01508C16.5787 9.4089 16.8 9.94304 16.8 10.5C16.8 11.057 16.5787 11.5911 16.1849 11.9849C15.7911 12.3787 15.257 12.6 14.7 12.6ZM10.5 16.8C9.94304 16.8 9.4089 16.5787 9.01508 16.1849C8.62125 15.7911 8.4 15.257 8.4 14.7C8.4 14.143 8.62125 13.6089 9.01508 13.2151C9.4089 12.8212 9.94304 12.6 10.5 12.6C11.057 12.6 11.5911 12.8212 11.9849 13.2151C12.3787 13.6089 12.6 14.143 12.6 14.7C12.6 15.257 12.3787 15.7911 11.9849 16.1849C11.5911 16.5787 11.057 16.8 10.5 16.8Z" fill="white"/>
</svg>
