<svg width="15" height="112" viewBox="0 0 15 112" fill="none" xmlns="http://www.w3.org/2000/svg">
<path d="M6.6638 110.186L6.6638 99.9132L8.87473 99.9132L8.87473 110.186L6.6638 110.186ZM0.412186 99.6083L2.62312 99.6083L2.62312 110.263L1.19364 108.89L14.707 108.89L14.707 111.406L0.412186 111.406L0.412186 99.6083ZM14.9739 90.0318C14.9739 91.6582 14.6626 93.0877 14.0399 94.3202C13.4173 95.5527 12.5533 96.5121 11.4478 97.1982C10.3296 97.8844 9.03357 98.2275 7.55961 98.2275C6.08565 98.2275 4.79594 97.8844 3.69047 97.1982C2.5723 96.5121 1.7019 95.5528 1.07928 94.3202C0.456659 93.0877 0.145348 91.6582 0.145348 90.0318C0.145348 88.4053 0.456658 86.9758 1.07928 85.7433C1.7019 84.5108 2.5723 83.5514 3.69047 82.8653C4.79594 82.1791 6.08565 81.8361 7.55961 81.8361C9.03357 81.8361 10.3296 82.1791 11.4478 82.8653C12.5533 83.5514 13.4173 84.5108 14.0399 85.7433C14.6626 86.9758 14.9739 88.4053 14.9739 90.0318ZM12.7248 90.0318C12.7248 88.8755 12.5152 87.878 12.0958 87.0394C11.6765 86.2007 11.0793 85.5527 10.3042 85.0953C9.52912 84.6251 8.61425 84.3901 7.55961 84.3901C6.50497 84.3901 5.5901 84.6251 4.815 85.0953C4.0399 85.5527 3.44269 86.2007 3.02338 87.0394C2.60406 87.878 2.3944 88.8755 2.3944 90.0318C2.3944 91.1754 2.60406 92.1728 3.02338 93.0242C3.44269 93.8628 4.0399 94.5172 4.815 94.9873C5.5901 95.4447 6.50497 95.6735 7.55961 95.6735C8.61425 95.6735 9.52912 95.4447 10.3042 94.9873C11.0793 94.5172 11.6765 93.8628 12.0958 93.0242C12.5152 92.1728 12.7248 91.1754 12.7248 90.0318ZM8.56978 77.0665C9.42111 77.0665 10.1581 76.895 10.7807 76.5519C11.4033 76.2088 11.8862 75.7196 12.2293 75.0843C12.5596 74.4362 12.7248 73.6675 12.7248 72.778C12.7248 71.8759 12.5596 71.1071 12.2293 70.4718C11.8862 69.8365 11.4033 69.3473 10.7807 69.0042C10.1581 68.6611 9.42111 68.4896 8.56978 68.4896L0.412184 68.4896L0.412184 65.9737L8.66508 65.9737C9.92302 65.9737 11.0285 66.2596 11.9815 66.8314C12.9218 67.4032 13.6587 68.1973 14.1924 69.2139C14.7134 70.2304 14.9739 71.4184 14.9739 72.778C14.9739 74.1249 14.7134 75.313 14.1924 76.3422C13.6587 77.3587 12.9218 78.1529 11.9815 78.7247C11.0285 79.2965 9.92302 79.5824 8.66508 79.5824L0.412185 79.5824L0.412185 77.0665L8.56978 77.0665ZM13.1822 49.7099L13.2966 50.7391L0.412184 50.7391L0.412184 48.2995L14.707 48.2995L14.707 51.5015L1.82261 61.527L1.70825 60.5168L14.707 60.5168L14.707 62.9564L0.412184 62.9564L0.412184 59.6782L13.1822 49.7099ZM0.412183 38.6452C0.412183 37.0188 0.710787 35.5957 1.30799 34.3758C1.9052 33.1433 2.74383 32.184 3.82389 31.4978C4.89123 30.8117 6.13647 30.4686 7.55961 30.4686C8.98274 30.4686 10.2343 30.8117 11.3144 31.4978C12.3817 32.184 13.214 33.1433 13.8112 34.3758C14.4084 35.5957 14.707 37.0188 14.707 38.6452L14.707 45.1065L0.412183 45.1065L0.412183 38.6452ZM13.8303 42.5906L12.4961 43.982L12.4961 38.4737C12.4961 37.3809 12.2928 36.4279 11.8862 35.6147C11.4669 34.7888 10.8887 34.1535 10.1517 33.7087C9.40205 33.2513 8.53801 33.0226 7.55961 33.0226C6.5685 33.0226 5.70445 33.2513 4.96747 33.7087C4.2305 34.1535 3.6587 34.7888 3.25209 35.6147C2.83278 36.4279 2.62312 37.3809 2.62312 38.4737L2.62312 43.982L1.28893 42.5906L13.8303 42.5906ZM6.51132 16.7332L8.60789 16.7332L8.60789 26.7205L6.51132 26.7205L6.51132 16.7332ZM7.5596 25.0623L13.9446 26.0725L12.5342 27.2732L12.5342 16.1804L14.707 16.1804L14.707 28.6455L7.55961 27.502L0.412183 28.6455L0.412182 16.2757L2.585 16.2757L2.585 27.2732L1.17457 26.0725L7.5596 25.0623ZM6.85439 11.8038L6.85439 5.99059C6.85439 5.15196 6.66379 4.49122 6.2826 4.00837C5.9014 3.51281 5.38043 3.26504 4.71969 3.26504C4.04625 3.26504 3.52528 3.51281 3.15679 4.00837C2.7756 4.49122 2.585 5.15196 2.585 5.99059L2.585 12.166L1.17457 11.0414L14.707 11.0414L14.707 13.5573L0.412182 13.5573L0.412182 5.76187C0.412182 4.75805 0.596427 3.8813 0.964916 3.13162C1.3207 2.36923 1.82261 1.77837 2.47064 1.35906C3.10597 0.927036 3.85565 0.711025 4.71969 0.711025C5.55833 0.711025 6.30166 0.927036 6.94969 1.35906C7.58502 1.77837 8.08693 2.36923 8.45541 3.13162C8.8112 3.8813 8.98909 4.75805 8.98909 5.76187L8.98909 11.8038L6.85439 11.8038ZM8.01704 8.98298L8.01704 6.02871L14.707 0.348889L14.707 3.36034L8.01704 8.98298Z" fill="#1F2520"/>
</svg>
