<svg width="10" height="160" viewBox="0 0 10 180" fill="none" xmlns="http://www.w3.org/2000/svg">
<path d="M1.13434 176.107C1.13434 175.22 1.29705 174.445 1.62248 173.78C1.94791 173.109 2.40489 172.586 2.99343 172.212C3.57505 171.838 4.2536 171.651 5.02908 171.651C5.80457 171.651 6.48658 171.838 7.07512 172.212C7.65674 172.586 8.11026 173.109 8.43569 173.78C8.76111 174.445 8.92383 175.22 8.92383 176.107L8.92383 179.628L1.13434 179.628L1.13434 176.107ZM8.44607 178.257L7.71905 179.015L7.71905 176.013C7.71905 175.418 7.60827 174.899 7.3867 174.455C7.15821 174.005 6.84317 173.659 6.44158 173.417C6.03306 173.168 5.56223 173.043 5.02908 173.043C4.48901 173.043 4.01818 173.168 3.61659 173.417C3.215 173.659 2.90342 174.005 2.68185 174.455C2.45336 174.899 2.33912 175.418 2.33912 176.013L2.33912 179.015L1.6121 178.257L8.44607 178.257ZM4.6448 169.361L4.6448 166.193C4.6448 165.736 4.54094 165.376 4.33322 165.113C4.1255 164.843 3.84162 164.708 3.48157 164.708C3.1146 164.708 2.83072 164.843 2.62992 165.113C2.4222 165.376 2.31834 165.736 2.31834 166.193L2.31834 169.559L1.54978 168.946L8.92383 168.946L8.92383 170.317L1.13434 170.317L1.13434 166.069C1.13434 165.522 1.23474 165.044 1.43553 164.636C1.62941 164.22 1.9029 163.898 2.25603 163.67C2.60223 163.434 3.01074 163.317 3.48157 163.317C3.93856 163.317 4.34361 163.434 4.69673 163.67C5.04293 163.898 5.31643 164.22 5.51723 164.636C5.7111 165.044 5.80803 165.522 5.80803 166.069L5.80803 169.361L4.6448 169.361ZM5.27835 167.824L5.27835 166.214L8.92383 163.119L8.92383 164.76L5.27835 167.824ZM5.57954 160.631C6.04345 160.631 6.44504 160.538 6.78431 160.351C7.12359 160.164 7.3867 159.897 7.57365 159.551C7.75367 159.198 7.84369 158.779 7.84369 158.294C7.84369 157.803 7.75367 157.384 7.57365 157.038C7.3867 156.692 7.12359 156.425 6.78431 156.238C6.44504 156.051 6.04345 155.958 5.57954 155.958L1.13434 155.958L1.13434 154.587L5.63147 154.587C6.31695 154.587 6.91933 154.742 7.43863 155.054C7.95101 155.366 8.3526 155.798 8.64341 156.352C8.92729 156.906 9.06923 157.554 9.06923 158.294C9.06923 159.028 8.92729 159.676 8.64341 160.237C8.3526 160.791 7.95101 161.223 7.43863 161.535C6.91933 161.846 6.31695 162.002 5.63147 162.002L1.13434 162.002L1.13434 160.631L5.57954 160.631ZM1.13434 142.463L8.92383 142.463L8.92383 143.772L1.54978 143.772L1.57055 143.346L8.92383 146.971L8.92383 148.435L1.58094 152.06L1.56017 151.634L8.92383 151.634L8.92383 152.943L1.13434 152.943L1.13434 150.845L8.33183 147.355L8.33183 148.04L1.13434 144.561L1.13434 142.463ZM6.38965 141.198L6.38965 139.807C6.70123 139.765 6.97472 139.637 7.21014 139.422C7.44555 139.201 7.62904 138.91 7.7606 138.55C7.88523 138.19 7.94754 137.775 7.94754 137.304C7.94754 136.604 7.84022 136.05 7.62558 135.642C7.40401 135.233 7.10628 135.029 6.73238 135.029C6.42773 135.029 6.19924 135.147 6.04691 135.382C5.89458 135.618 5.78034 136.044 5.70417 136.66L5.48607 138.342C5.36143 139.284 5.12948 139.969 4.79021 140.399C4.44401 140.821 3.95586 141.032 3.32578 141.032C2.84803 141.032 2.43605 140.89 2.08985 140.606C1.73673 140.316 1.46669 139.907 1.27974 139.381C1.08587 138.855 0.988936 138.238 0.988936 137.532C0.988936 136.833 1.0928 136.213 1.30052 135.673C1.50823 135.133 1.79904 134.704 2.17294 134.385C2.53991 134.06 2.97266 133.883 3.47119 133.856L3.47119 135.247C3.19423 135.282 2.95535 135.4 2.75455 135.6C2.55376 135.794 2.39797 136.057 2.28718 136.39C2.16948 136.722 2.11062 137.113 2.11062 137.563C2.11062 138.2 2.21448 138.709 2.4222 139.09C2.62992 139.471 2.9138 139.661 3.27385 139.661C3.55081 139.661 3.76546 139.551 3.91778 139.329C4.06319 139.101 4.17397 138.706 4.25013 138.145L4.48901 136.442C4.58595 135.742 4.7175 135.192 4.88368 134.79C5.04293 134.382 5.26104 134.091 5.538 133.918C5.80803 133.745 6.15769 133.658 6.58698 133.658C7.08551 133.658 7.52172 133.811 7.89561 134.115C8.26951 134.42 8.56032 134.849 8.76804 135.403C8.96883 135.95 9.06923 136.591 9.06923 137.325C9.06923 138.072 8.95845 138.734 8.73688 139.308C8.50839 139.876 8.19335 140.326 7.79175 140.658C7.39016 140.991 6.92279 141.171 6.38965 141.198ZM1.76788 130.185L1.76788 128.814L8.92383 128.814L8.92383 130.185L1.76788 130.185ZM1.13434 133.404L1.13434 125.594L2.33911 125.594L2.33911 133.404L1.13434 133.404ZM1.13434 124.553L1.13434 123.183L8.92383 123.183L8.92383 124.553L1.13434 124.553ZM5.83919 113.224C6.4762 113.294 7.0405 113.519 7.5321 113.899C8.01678 114.273 8.39414 114.765 8.66418 115.374C8.93421 115.984 9.06923 116.679 9.06923 117.462C9.06923 118.334 8.89959 119.099 8.56032 119.757C8.22104 120.415 7.75021 120.927 7.14782 121.294C6.53851 121.661 5.83226 121.845 5.02908 121.845C4.2259 121.845 3.52311 121.661 2.92073 121.294C2.31142 120.927 1.83712 120.415 1.49785 119.757C1.15857 119.099 0.988935 118.334 0.988935 117.462C0.988935 116.679 1.12395 115.984 1.39399 115.374C1.66402 114.765 2.04138 114.273 2.52606 113.899C3.01074 113.519 3.57504 113.294 4.21898 113.224L4.21898 114.606C3.80354 114.682 3.44695 114.848 3.14922 115.104C2.85149 115.354 2.623 115.679 2.46374 116.081C2.29757 116.482 2.21448 116.946 2.21448 117.472C2.21448 118.082 2.32873 118.611 2.55722 119.061C2.78571 119.504 3.11114 119.847 3.5335 120.09C3.95586 120.332 4.45439 120.453 5.02908 120.453C5.60377 120.453 6.1023 120.332 6.52466 120.09C6.94703 119.847 7.27245 119.504 7.50095 119.061C7.72944 118.611 7.84368 118.082 7.84368 117.472C7.84368 116.946 7.76406 116.482 7.60481 116.081C7.44555 115.679 7.21706 115.354 6.91933 115.104C6.61468 114.848 6.25463 114.682 5.83919 114.606L5.83919 113.224ZM8.92383 111.967L1.13434 111.967L1.13434 110.596L7.77098 110.596L7.51133 111.011L1.13434 105.797L1.13434 104.312L8.92383 110.741L8.92383 111.967ZM5.00831 108.259L4.06319 107.293L8.92382 104.198L8.92382 105.766L5.00831 108.259ZM6.38965 104.026L6.38965 102.634C6.70122 102.593 6.97472 102.465 7.21014 102.25C7.44555 102.028 7.62904 101.738 7.76059 101.378C7.88523 101.018 7.94754 100.602 7.94754 100.131C7.94754 99.4319 7.84022 98.878 7.62558 98.4695C7.40401 98.061 7.10628 97.8567 6.73238 97.8567C6.42773 97.8567 6.19924 97.9744 6.04691 98.2098C5.89458 98.4453 5.78033 98.8711 5.70417 99.4873L5.48606 101.17C5.36143 102.112 5.12948 102.797 4.7902 103.226C4.444 103.649 3.95586 103.86 3.32578 103.86C2.84803 103.86 2.43605 103.718 2.08985 103.434C1.73672 103.143 1.46669 102.735 1.27974 102.208C1.08587 101.682 0.988934 101.066 0.988934 100.36C0.988934 99.6604 1.09279 99.0407 1.30051 98.5007C1.50823 97.9606 1.79904 97.5313 2.17294 97.2128C2.53991 96.8874 2.97266 96.7108 3.47118 96.6831L3.47118 98.0748C3.19422 98.1094 2.95535 98.2272 2.75455 98.428C2.55376 98.6218 2.39797 98.8849 2.28718 99.2173C2.16947 99.5496 2.11062 99.9408 2.11062 100.391C2.11062 101.028 2.21448 101.537 2.4222 101.918C2.62992 102.298 2.9138 102.489 3.27385 102.489C3.55081 102.489 3.76545 102.378 3.91778 102.157C4.06319 101.928 4.17397 101.533 4.25013 100.973L4.48901 99.2692C4.58595 98.5699 4.7175 98.0194 4.88368 97.6178C5.04293 97.2093 5.26103 96.9185 5.53799 96.7454C5.80803 96.5723 6.15769 96.4858 6.58698 96.4858C7.08551 96.4858 7.52172 96.6381 7.89561 96.9428C8.26951 97.2474 8.56032 97.6767 8.76803 98.2306C8.96883 98.7776 9.06923 99.4181 9.06923 100.152C9.06923 100.9 8.95844 101.561 8.73688 102.136C8.50839 102.704 8.19334 103.154 7.79175 103.486C7.39016 103.818 6.92279 103.998 6.38965 104.026ZM1.13434 88.3392C1.13434 87.7576 1.2382 87.2556 1.44592 86.8332C1.65364 86.4039 1.94444 86.075 2.31834 85.8466C2.68531 85.6111 3.11114 85.4934 3.59582 85.4934C4.08049 85.4934 4.50978 85.6111 4.88368 85.8466C5.25065 86.075 5.53799 86.4039 5.74571 86.8332C5.95343 87.2556 6.05729 87.7576 6.05729 88.3392L6.05729 91.8393L4.87329 91.8393L4.87329 88.3911C4.87329 87.9203 4.75905 87.5533 4.53055 87.2902C4.30206 87.0202 3.99048 86.8852 3.59582 86.8852C3.20115 86.8852 2.88957 87.0202 2.66108 87.2902C2.43259 87.5533 2.31834 87.9203 2.31834 88.3911L2.31834 91.7042L1.63286 91.0915L8.92382 91.0915L8.92382 92.4624L1.13434 92.4624L1.13434 88.3392ZM4.6448 83.4131L4.6448 80.2454C4.6448 79.7884 4.54094 79.4284 4.33322 79.1653C4.1255 78.8952 3.84162 78.7602 3.48157 78.7602C3.1146 78.7602 2.83071 78.8952 2.62992 79.1653C2.4222 79.4284 2.31834 79.7884 2.31834 80.2454L2.31834 83.6105L1.54978 82.9977L8.92382 82.9977L8.92382 84.3687L1.13434 84.3687L1.13434 80.1208C1.13434 79.5738 1.23473 79.096 1.43553 78.6875C1.6294 78.2721 1.9029 77.9501 2.25602 77.7216C2.60222 77.4862 3.01074 77.3685 3.48157 77.3685C3.93855 77.3685 4.34361 77.4862 4.69673 77.7216C5.04293 77.9501 5.31643 78.2721 5.51722 78.6875C5.71109 79.096 5.80803 79.5738 5.80803 80.1208L5.80803 83.4131L4.6448 83.4131ZM5.27834 81.876L5.27834 80.2662L8.92382 77.1712L8.92382 78.8122L5.27834 81.876ZM9.06923 71.9607C9.06923 72.8469 8.89959 73.6259 8.56031 74.2975C8.22104 74.9691 7.75021 75.4919 7.14782 75.8658C6.53851 76.2397 5.83226 76.4266 5.02908 76.4266C4.2259 76.4266 3.52311 76.2397 2.92073 75.8658C2.31142 75.4919 1.83712 74.9691 1.49785 74.2975C1.15857 73.6259 0.988933 72.8469 0.988933 71.9607C0.988933 71.0744 1.15857 70.2954 1.49785 69.6238C1.83712 68.9522 2.31141 68.4294 2.92073 68.0555C3.52311 67.6816 4.2259 67.4947 5.02908 67.4947C5.83226 67.4947 6.53851 67.6816 7.14782 68.0555C7.75021 68.4294 8.22104 68.9522 8.56031 69.6238C8.89959 70.2954 9.06923 71.0744 9.06923 71.9607ZM7.84368 71.9607C7.84368 71.3306 7.72944 70.787 7.50094 70.3301C7.27245 69.8731 6.94702 69.52 6.52466 69.2707C6.1023 69.0145 5.60377 68.8864 5.02908 68.8864C4.45439 68.8864 3.95586 69.0145 3.5335 69.2707C3.11114 69.52 2.78571 69.8731 2.55722 70.3301C2.32872 70.787 2.21448 71.3306 2.21448 71.9607C2.21448 72.5838 2.32872 73.1274 2.55722 73.5913C2.78571 74.0482 3.11114 74.4048 3.5335 74.661C3.95586 74.9103 4.45439 75.0349 5.02908 75.0349C5.60377 75.0349 6.1023 74.9103 6.52466 74.661C6.94702 74.4048 7.27245 74.0482 7.50094 73.5913C7.72944 73.1273 7.84368 72.5838 7.84368 71.9607ZM1.13434 62.6419C1.13434 61.7556 1.29705 60.9802 1.62248 60.3155C1.94791 59.6438 2.40489 59.1211 2.99343 58.7472C3.57504 58.3733 4.25359 58.1863 5.02908 58.1863C5.80457 58.1863 6.48658 58.3733 7.07512 58.7472C7.65673 59.1211 8.11025 59.6438 8.43568 60.3155C8.76111 60.9802 8.92382 61.7556 8.92382 62.6419L8.92382 66.1628L1.13434 66.1628L1.13434 62.6419ZM8.44607 64.7918L7.71905 65.55L7.71905 62.5484C7.71905 61.953 7.60827 61.4337 7.3867 60.9905C7.15821 60.5405 6.84316 60.1943 6.44157 59.9519C6.03306 59.7027 5.56223 59.5781 5.02908 59.5781C4.48901 59.5781 4.01818 59.7027 3.61659 59.9519C3.21499 60.1943 2.90342 60.5405 2.68185 60.9905C2.45336 61.4337 2.33911 61.953 2.33911 62.5484L2.33911 65.55L1.61209 64.7918L8.44607 64.7918ZM5.57954 55.5848C6.04344 55.5848 6.44503 55.4913 6.78431 55.3044C7.12359 55.1174 7.3867 54.8509 7.57364 54.5047C7.75367 54.1515 7.84368 53.7326 7.84368 53.248C7.84368 52.7564 7.75367 52.3375 7.57364 51.9913C7.3867 51.6451 7.12359 51.3785 6.78431 51.1915C6.44503 51.0046 6.04344 50.9111 5.57954 50.9111L1.13434 50.9111L1.13434 49.5402L5.63147 49.5402C6.31694 49.5402 6.91933 49.696 7.43863 50.0075C7.951 50.3191 8.35259 50.7519 8.6434 51.3058C8.92728 51.8597 9.06923 52.5071 9.06923 53.248C9.06923 53.9819 8.92728 54.6293 8.6434 55.1901C8.35259 55.7441 7.951 56.1768 7.43863 56.4884C6.91933 56.8 6.31694 56.9558 5.63147 56.9558L1.13434 56.9558L1.13434 55.5848L5.57954 55.5848ZM5.83919 39.6807C6.47619 39.7499 7.0405 39.975 7.5321 40.3558C8.01678 40.7297 8.39414 41.2213 8.66417 41.8306C8.93421 42.4399 9.06923 43.1358 9.06923 43.9182C9.06923 44.7906 8.89959 45.5557 8.56031 46.2135C8.22104 46.8713 7.75021 47.3836 7.14782 47.7506C6.53851 48.1176 5.83226 48.3011 5.02908 48.3011C4.2259 48.3011 3.52311 48.1176 2.92072 47.7506C2.31141 47.3836 1.83712 46.8713 1.49785 46.2135C1.15857 45.5557 0.988932 44.7906 0.988932 43.9182C0.988932 43.1358 1.12395 42.4399 1.39399 41.8306C1.66402 41.2213 2.04138 40.7297 2.52606 40.3558C3.01074 39.975 3.57504 39.7499 4.21897 39.6807L4.21897 41.062C3.80353 41.1382 3.44695 41.3044 3.14922 41.5606C2.85148 41.8098 2.62299 42.1353 2.46374 42.5368C2.29757 42.9384 2.21448 43.4023 2.21448 43.9286C2.21448 44.5379 2.32872 45.0676 2.55722 45.5176C2.78571 45.9608 3.11113 46.3035 3.5335 46.5458C3.95586 46.7882 4.45439 46.9093 5.02908 46.9093C5.60377 46.9093 6.1023 46.7882 6.52466 46.5458C6.94702 46.3035 7.27245 45.9608 7.50094 45.5176C7.72943 45.0676 7.84368 44.5379 7.84368 43.9286C7.84368 43.4023 7.76405 42.9384 7.6048 42.5368C7.44555 42.1353 7.21706 41.8098 6.91933 41.5606C6.61467 41.3044 6.25462 41.1382 5.83919 41.062L5.83919 39.6807ZM1.76788 36.2847L1.76788 34.9138L8.92382 34.9138L8.92382 36.2847L1.76788 36.2847ZM1.13434 39.5044L1.13433 31.6941L2.33911 31.6941L2.33911 39.5044L1.13434 39.5044ZM1.13433 30.6537L1.13433 29.2827L8.92382 29.2827L8.92382 30.6537L1.13433 30.6537ZM9.06922 23.4894C9.06923 24.3756 8.89959 25.1546 8.56031 25.8262C8.22104 26.4978 7.75021 27.0206 7.14782 27.3945C6.53851 27.7684 5.83226 27.9553 5.02908 27.9553C4.2259 27.9553 3.52311 27.7684 2.92072 27.3945C2.31141 27.0206 1.83712 26.4978 1.49784 25.8262C1.15857 25.1546 0.988931 24.3756 0.988931 23.4894C0.988931 22.6031 1.15857 21.8241 1.49784 21.1525C1.83712 20.4809 2.31141 19.9581 2.92072 19.5842C3.52311 19.2103 4.2259 19.0234 5.02908 19.0234C5.83226 19.0234 6.53851 19.2103 7.14782 19.5842C7.75021 19.9581 8.22104 20.4809 8.56031 21.1525C8.89959 21.8241 9.06922 22.6031 9.06922 23.4894ZM7.84368 23.4894C7.84368 22.8593 7.72943 22.3158 7.50094 21.8588C7.27245 21.4018 6.94702 21.0487 6.52466 20.7994C6.1023 20.5432 5.60377 20.4151 5.02908 20.4151C4.45439 20.4151 3.95586 20.5432 3.5335 20.7994C3.11113 21.0487 2.78571 21.4018 2.55721 21.8588C2.32872 22.3158 2.21448 22.8593 2.21448 23.4894C2.21448 24.1125 2.32872 24.6561 2.55721 25.12C2.78571 25.5769 3.11113 25.9335 3.5335 26.1897C3.95586 26.439 4.45439 26.5636 5.02908 26.5636C5.60377 26.5636 6.1023 26.439 6.52466 26.1897C6.94702 25.9335 7.27245 25.5769 7.50094 25.12C7.72943 24.6561 7.84368 24.1125 7.84368 23.4894ZM8.09294 10.4732L8.15526 11.0341L1.13433 11.0341L1.13433 9.70466L8.92382 9.70466L8.92382 11.4495L1.9029 16.9125L1.84058 16.3621L8.92382 16.3621L8.92382 17.6915L1.13433 17.6915L1.13433 15.9051L8.09294 10.4732ZM6.38964 8.44252L6.38964 7.0508C6.70122 7.00926 6.97472 6.88116 7.21013 6.66652C7.44555 6.44495 7.62903 6.15414 7.76059 5.7941C7.88522 5.43405 7.94754 5.01861 7.94754 4.54778C7.94754 3.84846 7.84022 3.29454 7.62557 2.88602C7.404 2.47751 7.10627 2.27325 6.73238 2.27325C6.42772 2.27325 6.19923 2.39096 6.0469 2.62637C5.89458 2.86179 5.78033 3.28761 5.70417 3.90385L5.48606 5.58638C5.36143 6.52804 5.12948 7.21351 4.7902 7.6428C4.444 8.06516 3.95586 8.27635 3.32578 8.27635C2.84802 8.27635 2.43604 8.1344 2.08984 7.85052C1.73672 7.55971 1.46669 7.1512 1.27974 6.62497C1.08587 6.09875 0.98893 5.48252 0.98893 4.77627C0.98893 4.07695 1.09279 3.45725 1.30051 2.91718C1.50823 2.37711 1.79904 1.94782 2.17293 1.62932C2.5399 1.30389 2.97265 1.12733 3.47118 1.09963L3.47118 2.49135C3.19422 2.52597 2.95534 2.64368 2.75455 2.84448C2.55375 3.03835 2.39796 3.30146 2.28718 3.63381C2.16947 3.96616 2.11062 4.35737 2.11062 4.80743C2.11062 5.44443 2.21448 5.95335 2.4222 6.33417C2.62992 6.71499 2.9138 6.9054 3.27385 6.9054C3.55081 6.9054 3.76545 6.79461 3.91778 6.57304C4.06318 6.34455 4.17396 5.94989 4.25013 5.38904L4.48901 3.68574C4.58594 2.98642 4.7175 2.43596 4.88367 2.03437C5.04292 1.62585 5.26103 1.33505 5.53799 1.16195C5.80803 0.988848 6.15769 0.902298 6.58697 0.902298C7.0855 0.902298 7.52171 1.05463 7.89561 1.35928C8.2695 1.66394 8.56031 2.09322 8.76803 2.64714C8.96883 3.19414 9.06922 3.83461 9.06922 4.56855C9.06922 5.31634 8.95844 5.97758 8.73687 6.55227C8.50838 7.12004 8.19334 7.5701 7.79175 7.90245C7.39016 8.2348 6.92279 8.41483 6.38964 8.44252Z" fill="#1F2520"/>
</svg>
