<svg width="10" height="140" viewBox="0 0 10 161" fill="none" xmlns="http://www.w3.org/2000/svg">
<path d="M5.61263 151.598C6.24964 151.668 6.81394 151.893 7.30554 152.274C7.79022 152.647 8.16758 153.139 8.43762 153.748C8.70765 154.358 8.84267 155.054 8.84267 155.836C8.84267 156.708 8.67303 157.473 8.33376 158.131C7.99448 158.789 7.52365 159.301 6.92126 159.668C6.31195 160.035 5.6057 160.219 4.80252 160.219C3.99934 160.219 3.29655 160.035 2.69417 159.668C2.08486 159.301 1.61056 158.789 1.27129 158.131C0.932013 157.473 0.762375 156.708 0.762375 155.836C0.762375 155.054 0.897393 154.358 1.16743 153.748C1.43746 153.139 1.81482 152.647 2.2995 152.274C2.78418 151.893 3.34848 151.668 3.99242 151.598L3.99242 152.98C3.57698 153.056 3.22039 153.222 2.92266 153.478C2.62493 153.728 2.39644 154.053 2.23718 154.455C2.07101 154.856 1.98792 155.32 1.98792 155.846C1.98792 156.456 2.10217 156.985 2.33066 157.435C2.55915 157.879 2.88458 158.221 3.30694 158.464C3.7293 158.706 4.22783 158.827 4.80252 158.827C5.37721 158.827 5.87574 158.706 6.2981 158.464C6.72047 158.221 7.04589 157.879 7.27439 157.435C7.50288 156.985 7.61712 156.456 7.61712 155.846C7.61712 155.32 7.5375 154.856 7.37825 154.455C7.21899 154.053 6.9905 153.728 6.69277 153.478C6.38812 153.222 6.02807 153.056 5.61263 152.98L5.61263 151.598ZM0.907778 150.341L0.907778 148.97L8.69727 148.97L8.69727 150.341L0.907778 150.341ZM0.907778 136.747L8.69726 136.747L8.69726 138.056L1.32322 138.056L1.34399 137.63L8.69726 141.255L8.69726 142.719L1.35438 146.344L1.3336 145.918L8.69726 145.918L8.69727 147.227L0.907778 147.227L0.907778 145.129L8.10526 141.639L8.10526 142.325L0.907778 138.845L0.907778 136.747ZM6.91088 133.966L5.7788 133.966L5.7788 128.524L6.91088 128.524L6.91088 133.966ZM0.907777 130.352L8.69726 126.613L8.69726 128.078L1.42708 131.474L1.42708 130.944L8.69726 134.34L8.69726 135.805L0.907778 132.066L0.907777 130.352ZM1.54132 124.509L1.54132 123.139L8.69726 123.139L8.69726 124.509L1.54132 124.509ZM0.907777 127.729L0.907777 119.919L2.11255 119.919L2.11255 127.729L0.907777 127.729ZM0.907777 115.29L0.907777 114.189C1.66249 114.646 2.40336 114.985 3.13038 115.207C3.85047 115.422 4.58441 115.529 5.33221 115.529C6.06615 115.529 6.79663 115.422 7.52365 115.207C8.24374 114.985 8.98461 114.646 9.74625 114.189L9.74625 115.29C9.02615 115.837 8.30606 116.246 7.58596 116.516C6.85894 116.786 6.10769 116.921 5.33221 116.921C4.5498 116.921 3.79508 116.786 3.06806 116.516C2.34104 116.246 1.62095 115.837 0.907777 115.29ZM5.61263 105.186C6.24963 105.255 6.81394 105.48 7.30554 105.861C7.79022 106.235 8.16758 106.727 8.43761 107.336C8.70765 107.945 8.84267 108.641 8.84267 109.424C8.84267 110.296 8.67303 111.061 8.33375 111.719C7.99448 112.377 7.52365 112.889 6.92126 113.256C6.31195 113.623 5.6057 113.806 4.80252 113.806C3.99934 113.806 3.29655 113.623 2.69417 113.256C2.08486 112.889 1.61056 112.377 1.27129 111.719C0.932011 111.061 0.762373 110.296 0.762373 109.424C0.762373 108.641 0.897391 107.945 1.16743 107.336C1.43746 106.727 1.81482 106.235 2.2995 105.861C2.78418 105.48 3.34848 105.255 3.99241 105.186L3.99241 106.567C3.57697 106.644 3.22039 106.81 2.92266 107.066C2.62493 107.315 2.39643 107.641 2.23718 108.042C2.07101 108.444 1.98792 108.908 1.98792 109.434C1.98792 110.043 2.10216 110.573 2.33066 111.023C2.55915 111.466 2.88458 111.809 3.30694 112.051C3.7293 112.294 4.22783 112.415 4.80252 112.415C5.37721 112.415 5.87574 112.294 6.2981 112.051C6.72046 111.809 7.04589 111.466 7.27438 111.023C7.50288 110.573 7.61712 110.043 7.61712 109.434C7.61712 108.908 7.5375 108.444 7.37824 108.042C7.21899 107.641 6.9905 107.315 6.69277 107.066C6.38811 106.81 6.02807 106.644 5.61263 106.567L5.61263 105.186ZM0.907776 102.557L8.08449 102.557L7.49249 103.17L7.49249 97.302L8.69726 97.302L8.69726 103.928L0.907776 103.928L0.907776 102.557ZM5.35298 95.389C5.81688 95.389 6.21847 95.2955 6.55775 95.1085C6.89703 94.9216 7.16014 94.655 7.34708 94.3088C7.52711 93.9557 7.61712 93.5368 7.61712 93.0521C7.61712 92.5605 7.52711 92.1416 7.34708 91.7954C7.16014 91.4492 6.89703 91.1826 6.55775 90.9957C6.21847 90.8087 5.81688 90.7153 5.35298 90.7153L0.907776 90.7153L0.907776 89.3443L5.40491 89.3443C6.09038 89.3443 6.69277 89.5001 7.21207 89.8117C7.72444 90.1233 8.12603 90.556 8.41684 91.1099C8.70072 91.6638 8.84267 92.3112 8.84267 93.0521C8.84267 93.786 8.70072 94.4334 8.41684 94.9943C8.12603 95.5482 7.72444 95.981 7.21207 96.2925C6.69277 96.6041 6.09038 96.7599 5.40491 96.7599L0.907776 96.7599L0.907776 95.389L5.35298 95.389ZM6.16308 88.1779L6.16308 86.7862C6.47466 86.7447 6.74816 86.6166 6.98358 86.4019C7.21899 86.1803 7.40248 85.8895 7.53403 85.5295C7.65866 85.1694 7.72098 84.754 7.72098 84.2832C7.72098 83.5839 7.61366 83.0299 7.39901 82.6214C7.17745 82.2129 6.87972 82.0086 6.50582 82.0086C6.20116 82.0086 5.97267 82.1264 5.82035 82.3618C5.66802 82.5972 5.55377 83.023 5.47761 83.6392L5.2595 85.3218C5.13487 86.2634 4.90292 86.9489 4.56364 87.3782C4.21744 87.8006 3.7293 88.0117 3.09922 88.0117C2.62146 88.0117 2.20949 87.8698 1.86329 87.5859C1.51016 87.2951 1.24013 86.8866 1.05318 86.3604C0.859308 85.8341 0.762372 85.2179 0.762372 84.5117C0.762372 83.8123 0.866232 83.1926 1.07395 82.6526C1.28167 82.1125 1.57248 81.6832 1.94637 81.3647C2.31335 81.0393 2.74609 80.8627 3.24462 80.835L3.24462 82.2268C2.96766 82.2614 2.72878 82.3791 2.52799 82.5799C2.32719 82.7737 2.1714 83.0369 2.06062 83.3692C1.94291 83.7016 1.88406 84.0928 1.88406 84.5428C1.88406 85.1798 1.98792 85.6887 2.19564 86.0696C2.40336 86.4504 2.68724 86.6408 3.04729 86.6408C3.32425 86.6408 3.53889 86.53 3.69122 86.3084C3.83662 86.08 3.94741 85.6853 4.02357 85.1244L4.26245 83.4211C4.35938 82.7218 4.49094 82.1714 4.65712 81.7698C4.81637 81.3613 5.03447 81.0704 5.31143 80.8973C5.58147 80.7242 5.93113 80.6377 6.36042 80.6377C6.85894 80.6377 7.29515 80.79 7.66905 81.0947C8.04295 81.3993 8.33375 81.8286 8.54147 82.3825C8.74227 82.9295 8.84267 83.57 8.84267 84.3039C8.84267 85.0517 8.73188 85.713 8.51031 86.2877C8.28182 86.8554 7.96678 87.3055 7.56519 87.6378C7.1636 87.9702 6.69623 88.1502 6.16308 88.1779ZM1.54132 77.164L1.54132 75.793L8.69726 75.793L8.69726 77.164L1.54132 77.164ZM0.907775 80.3836L0.907775 72.5734L2.11255 72.5734L2.11255 80.3836L0.907775 80.3836ZM4.23129 65.3117L5.37375 65.3117L5.37375 70.754L4.23129 70.754L4.23129 65.3117ZM4.80252 69.8504L8.28182 70.4008L7.51326 71.0552L7.51326 65.0105L8.69726 65.0105L8.69726 71.803L4.80252 71.1798L0.907775 71.803L0.907775 65.0625L2.09178 65.0625L2.09178 71.0552L1.32321 70.4008L4.80252 69.8504ZM4.41824 62.6256L4.41824 59.4579C4.41824 59.0009 4.31438 58.6409 4.10666 58.3778C3.89894 58.1077 3.61505 57.9727 3.25501 57.9727C2.88804 57.9727 2.60415 58.1077 2.40336 58.3778C2.19564 58.6409 2.09178 59.0009 2.09178 59.4579L2.09178 62.823L1.32321 62.2102L8.69726 62.2102L8.69726 63.5812L0.907775 63.5812L0.907774 59.3333C0.907774 58.7863 1.00817 58.3085 1.20897 57.9C1.40284 57.4846 1.67634 57.1626 2.02946 56.9341C2.37566 56.6987 2.78418 56.581 3.25501 56.581C3.71199 56.581 4.11704 56.6987 4.47017 56.9341C4.81637 57.1626 5.08986 57.4846 5.29066 57.9C5.48453 58.3085 5.58147 58.7863 5.58147 59.3333L5.58147 62.6256L4.41824 62.6256ZM5.05178 61.0885L5.05178 59.4787L8.69726 56.3837L8.69726 58.0247L5.05178 61.0885ZM6.16308 55.6406L6.16308 54.2489C6.47466 54.2073 6.74816 54.0792 6.98357 53.8646C7.21899 53.643 7.40248 53.3522 7.53403 52.9922C7.65866 52.6321 7.72098 52.2167 7.72098 51.7458C7.72098 51.0465 7.61366 50.4926 7.39901 50.0841C7.17745 49.6756 6.87971 49.4713 6.50582 49.4713C6.20116 49.4713 5.97267 49.589 5.82034 49.8244C5.66802 50.0599 5.55377 50.4857 5.47761 51.1019L5.2595 52.7844C5.13487 53.7261 4.90292 54.4116 4.56364 54.8409C4.21744 55.2632 3.7293 55.4744 3.09922 55.4744C2.62146 55.4744 2.20948 55.3325 1.86328 55.0486C1.51016 54.7578 1.24013 54.3493 1.05318 53.823C0.859306 53.2968 0.76237 52.6806 0.76237 51.9743C0.76237 51.275 0.86623 50.6553 1.07395 50.1152C1.28167 49.5752 1.57248 49.1459 1.94637 48.8274C2.31334 48.502 2.74609 48.3254 3.24462 48.2977L3.24462 49.6894C2.96766 49.724 2.72878 49.8417 2.52799 50.0425C2.32719 50.2364 2.1714 50.4995 2.06062 50.8319C1.94291 51.1642 1.88406 51.5554 1.88406 52.0055C1.88406 52.6425 1.98792 53.1514 2.19564 53.5322C2.40336 53.9131 2.68724 54.1035 3.04729 54.1035C3.32425 54.1035 3.53889 53.9927 3.69122 53.7711C3.83662 53.5426 3.94741 53.148 4.02357 52.5871L4.26245 50.8838C4.35938 50.1845 4.49094 49.634 4.65711 49.2324C4.81637 48.8239 5.03447 48.5331 5.31143 48.36C5.58147 48.1869 5.93113 48.1004 6.36041 48.1004C6.85894 48.1004 7.29515 48.2527 7.66905 48.5573C8.04294 48.862 8.33375 49.2913 8.54147 49.8452C8.74227 50.3922 8.84266 51.0327 8.84266 51.7666C8.84266 52.5144 8.73188 53.1756 8.51031 53.7503C8.28182 54.3181 7.96678 54.7682 7.56519 55.1005C7.1636 55.4329 6.69623 55.6129 6.16308 55.6406ZM0.907773 33.5976L8.69726 33.5976L8.69726 34.9062L1.32321 34.9062L1.34399 34.4804L8.69726 38.1051L8.69726 39.5695L1.35437 43.1942L1.3336 42.7684L8.69726 42.7684L8.69726 44.077L0.907774 44.077L0.907774 41.979L8.10526 38.4894L8.10526 39.1748L0.907773 35.6955L0.907773 33.5976ZM4.23129 25.634L5.37375 25.634L5.37375 31.0763L4.23129 31.0763L4.23129 25.634ZM4.80252 30.1727L8.28182 30.7232L7.51326 31.3775L7.51326 25.3328L8.69726 25.3328L8.69726 32.1253L4.80252 31.5021L0.907773 32.1253L0.907773 25.3848L2.09178 25.3848L2.09178 31.3775L1.32321 30.7232L4.80252 30.1727ZM0.907773 20.3826C0.907773 19.4963 1.07049 18.7209 1.39591 18.0561C1.72134 17.3845 2.17832 16.8618 2.76686 16.4879C3.34848 16.114 4.02703 15.927 4.80252 15.927C5.578 15.927 6.26002 16.114 6.84855 16.4879C7.43017 16.8618 7.88369 17.3845 8.20912 18.0561C8.53455 18.7209 8.69726 19.4963 8.69726 20.3826L8.69726 23.9035L0.907773 23.9035L0.907773 20.3826ZM8.2195 22.5325L7.49249 23.2907L7.49249 20.2891C7.49249 19.6937 7.3817 19.1744 7.16013 18.7312C6.93164 18.2812 6.6166 17.935 6.21501 17.6926C5.80649 17.4434 5.33566 17.3187 4.80252 17.3187C4.26245 17.3187 3.79161 17.4434 3.39002 17.6926C2.98843 17.935 2.67685 18.2812 2.45528 18.7312C2.22679 19.1744 2.11255 19.6937 2.11255 20.2891L2.11255 23.2907L1.38553 22.5325L8.2195 22.5325ZM0.907772 14.5926L0.907772 13.2216L8.69726 13.2216L8.69726 14.5926L0.907772 14.5926ZM6.91087 10.4402L5.7788 10.4402L5.7788 4.99797L6.91087 4.99797L6.91087 10.4402ZM0.907772 6.8259L8.69726 3.08695L8.69726 4.55137L1.42707 7.94759L1.42707 7.4179L8.69726 10.8141L8.69726 12.2785L0.907772 8.53959L0.907772 6.8259ZM0.907772 1.64938C1.62094 1.10239 2.34104 0.693875 3.06806 0.423839C3.79508 0.153803 4.54979 0.0187856 5.3322 0.0187856C6.10769 0.0187855 6.85894 0.153803 7.58596 0.423839C8.30605 0.693874 9.02615 1.10239 9.74624 1.64938L9.74624 2.7503C8.9846 2.29332 8.24374 1.9575 7.52364 1.74286C6.79662 1.52129 6.06614 1.41051 5.3322 1.41051C4.58441 1.41051 3.85047 1.52129 3.13037 1.74286C2.40335 1.9575 1.66249 2.29332 0.907772 2.7503L0.907772 1.64938Z" fill="#1F2520"/>
</svg>
